# This file uses centimeters as units for non-parametric coordinates.

mtllib SpeedNeedle.mtl
g default
v 0.004239 -0.000254 -0.590154
v 0.042129 0.000606 -0.589448
v 0.004234 0.001637 -0.590194
v 0.042128 0.000996 -0.589456
v 0.042145 0.000305 -0.590214
v 0.042143 0.001265 -0.590235
v 0.042129 0.000606 -0.589448
v 0.042128 0.000996 -0.589456
v 0.042128 0.000996 -0.589456
v 0.042143 0.001265 -0.590235
v 0.004234 0.001637 -0.590194
v 0.004248 0.001906 -0.590973
v 0.004254 -0.000556 -0.590920
v 0.042145 0.000305 -0.590214
v 0.004239 -0.000254 -0.590154
v 0.042129 0.000606 -0.589448
vt 0.930931 0.071648
vt 0.934692 0.059311
vt 0.940410 0.071648
vt 0.936648 0.059311
vt 0.933263 0.059311
vt 0.938078 0.059311
vt 0.934692 0.059311
vt 0.936648 0.059311
vt 0.936648 0.059311
vt 0.938078 0.059311
vt 0.940410 0.071648
vt 0.941839 0.071648
vt 0.929502 0.071648
vt 0.933263 0.059311
vt 0.930931 0.071648
vt 0.934692 0.059311
vn -0.019106 0.021215 0.999592
vn -0.019106 0.021215 0.999592
vn -0.019106 0.021215 0.999592
vn -0.018610 0.447901 0.893889
vn -0.018610 0.447901 0.893889
vn -0.018610 0.447901 0.893889
vn 0.999822 0.010803 0.015445
vn 0.999822 0.010803 0.015445
vn 0.999822 0.010803 0.015445
vn 0.999822 0.010803 0.015445
vn 0.999822 0.010803 0.015445
vn 0.999822 0.010804 0.015445
vn 0.009551 0.993822 -0.110572
vn 0.009551 0.993822 -0.110572
vn 0.009551 0.993822 -0.110572
vn 0.009551 0.993822 -0.110572
vn 0.009551 0.993822 -0.110572
vn 0.009495 0.993826 -0.110540
vn 0.014719 -0.683323 0.729968
vn 0.014719 -0.683323 0.729968
vn 0.014719 -0.683323 0.729968
vn 0.014719 -0.683323 0.729968
vn 0.014719 -0.683323 0.729968
vn 0.014719 -0.683323 0.729968
s off
g aud_rs5_11_cockpit_speed_max_gauge_needle_16vertices8faces
usemtl initialShadingGroup
f 1/1/1 2/2/2 3/3/3
f 3/3/4 2/2/5 4/4/6
f 5/5/7 6/6/8 7/7/9
f 7/7/10 6/6/11 8/8/12
f 9/9/13 10/10/14 11/11/15
f 11/11/16 10/10/17 12/12/18
f 13/13/19 14/14/20 15/15/21
f 15/15/22 14/14/23 16/16/24
g default
v 0.010002 0.002417 -0.592929
v 0.008001 0.002173 -0.587711
v 0.010004 0.001530 -0.592910
v 0.008002 0.001636 -0.587700
v 0.008006 -0.000128 -0.587662
v 0.008007 -0.000665 -0.587650
v 0.010008 -0.000236 -0.592872
v 0.010011 -0.001123 -0.592853
v -0.001772 -0.001435 -0.587370
v 0.008007 -0.000665 -0.587650
v -0.001774 -0.000147 -0.587393
v 0.008006 -0.000128 -0.587662
v 0.008002 0.001636 -0.587700
v 0.008001 0.002173 -0.587711
v -0.001780 0.001619 -0.587430
v -0.001783 0.002907 -0.587463
v -0.005921 0.001606 -0.587547
v -0.005922 0.003194 -0.587587
v -0.008683 0.003347 -0.587762
v -0.009036 0.002029 -0.587740
v -0.009088 0.000711 -0.587712
v -0.005921 0.000723 -0.587524
v -0.005917 -0.000160 -0.587508
v -0.009029 -0.000606 -0.587683
v -0.008670 -0.001923 -0.587648
v -0.005909 -0.001749 -0.587481
v -0.005872 0.001497 -0.592193
v -0.005921 0.001606 -0.587547
v -0.005869 -0.000250 -0.592156
v -0.005921 0.000723 -0.587524
v -0.005917 -0.000160 -0.587508
v -0.005921 0.001606 -0.587547
v -0.005872 0.001497 -0.592193
v -0.001780 0.001619 -0.587430
v 0.010004 0.001530 -0.592910
v 0.008002 0.001636 -0.587700
v 0.008006 -0.000128 -0.587662
v 0.010008 -0.000236 -0.592872
v -0.001774 -0.000147 -0.587393
v -0.005869 -0.000250 -0.592156
v -0.005917 -0.000160 -0.587508
v -0.006354 -0.004578 -0.588077
v -0.007822 0.004544 -0.588301
v -0.007803 -0.003137 -0.588135
v -0.008746 0.002720 -0.588279
v -0.008736 -0.001318 -0.588193
v -0.009060 0.000700 -0.588242
v -0.006380 0.005994 -0.588305
v -0.004530 -0.005501 -0.588022
v -0.004561 0.006927 -0.588290
v -0.002510 -0.005815 -0.587977
v -0.002543 0.007252 -0.588258
v -0.000523 0.006939 -0.588213
v -0.000492 -0.005489 -0.587946
v 0.001327 -0.004556 -0.587931
v 0.001301 0.006015 -0.588158
v 0.002769 -0.003106 -0.587934
v 0.002751 0.004574 -0.588100
v 0.003693 -0.001282 -0.587956
v 0.003683 0.002756 -0.588042
v 0.004008 0.000738 -0.587993
v -0.009346 0.003883 -0.593330
v -0.008683 0.003347 -0.587762
v -0.001671 0.003385 -0.593100
v -0.005922 0.003194 -0.587587
v -0.001783 0.002907 -0.587463
v 0.008001 0.002173 -0.587711
v 0.010002 0.002417 -0.592929
v 0.010011 -0.001123 -0.592853
v 0.008007 -0.000665 -0.587650
v -0.001658 -0.002155 -0.592981
v -0.001772 -0.001435 -0.587370
v -0.005909 -0.001749 -0.587481
v -0.008670 -0.001923 -0.587648
v -0.009329 -0.002700 -0.593189
v -0.009329 -0.002700 -0.593189
v -0.008670 -0.001923 -0.587648
v -0.009840 -0.001056 -0.593234
v -0.009029 -0.000606 -0.587683
v -0.010009 0.000590 -0.593272
v -0.009088 0.000711 -0.587712
v -0.009036 0.002029 -0.587740
v -0.009848 0.002236 -0.593305
v -0.008683 0.003347 -0.587762
v -0.009346 0.003883 -0.593330
v -0.002412 -0.006819 -0.592968
v -0.002510 -0.005815 -0.587977
v -0.004709 -0.006461 -0.593019
v -0.004530 -0.005501 -0.588022
v -0.006783 -0.005412 -0.593082
v -0.006354 -0.004578 -0.588077
v -0.008431 -0.003773 -0.593149
v -0.007803 -0.003137 -0.588135
v -0.009491 -0.001705 -0.593213
v -0.008736 -0.001318 -0.588193
v -0.000492 -0.005489 -0.587946
v -0.000117 -0.006448 -0.592932
v 0.001327 -0.004556 -0.587931
v 0.001952 -0.005387 -0.592915
v 0.002769 -0.003106 -0.587934
v 0.003592 -0.003738 -0.592919
v 0.003693 -0.001282 -0.587956
v 0.004642 -0.001664 -0.592944
v 0.004008 0.000738 -0.587993
v 0.005000 0.000633 -0.592986
v 0.003683 0.002756 -0.588042
v 0.004631 0.002928 -0.593042
v 0.002751 0.004574 -0.588100
v 0.003570 0.004996 -0.593107
v 0.001301 0.006015 -0.588158
v 0.001922 0.006635 -0.593174
v -0.000523 0.006939 -0.588213
v -0.000152 0.007684 -0.593236
v -0.002543 0.007252 -0.588258
v -0.002449 0.008041 -0.593288
v -0.004561 0.006927 -0.588290
v -0.004745 0.007671 -0.593324
v -0.006380 0.005994 -0.588305
v -0.006812 0.006609 -0.593341
v -0.007822 0.004544 -0.588301
v -0.008453 0.004961 -0.593337
v -0.008746 0.002720 -0.588279
v -0.009502 0.002887 -0.593311
vt 0.893509 0.023009
vt 0.893320 0.023771
vt 0.893031 0.023009
vt 0.893030 0.023771
vt 0.892078 0.023771
vt 0.891788 0.023771
vt 0.892077 0.023009
vt 0.891599 0.023009
vt 0.891382 0.027686
vt 0.891788 0.023771
vt 0.892077 0.027686
vt 0.892078 0.023771
vt 0.893030 0.023771
vt 0.893320 0.023771
vt 0.893030 0.027686
vt 0.893725 0.027686
vt 0.893031 0.029346
vt 0.893888 0.029344
vt 0.893976 0.030452
vt 0.893265 0.030594
vt 0.892554 0.030616
vt 0.892554 0.029346
vt 0.892077 0.029346
vt 0.891843 0.030594
vt 0.891132 0.030452
vt 0.891220 0.029344
vt 0.893025 0.029362
vt 0.893031 0.029346
vt 0.892083 0.029362
vt 0.892554 0.029346
vt 0.892077 0.029346
vt 0.893031 0.029346
vt 0.893025 0.029362
vt 0.893030 0.027686
vt 0.893031 0.023009
vt 0.893030 0.023771
vt 0.892078 0.023771
vt 0.892077 0.023009
vt 0.892077 0.027686
vt 0.892083 0.029362
vt 0.892077 0.029346
vt 0.889701 0.029530
vt 0.894626 0.030109
vt 0.890481 0.030109
vt 0.893643 0.030481
vt 0.891464 0.030481
vt 0.892554 0.030609
vt 0.895406 0.029530
vt 0.889200 0.028801
vt 0.895907 0.028801
vt 0.889028 0.027991
vt 0.896080 0.027991
vt 0.895907 0.027183
vt 0.889200 0.027183
vt 0.889701 0.026453
vt 0.895406 0.026453
vt 0.890481 0.025874
vt 0.894626 0.025874
vt 0.891464 0.025502
vt 0.893643 0.025502
vt 0.892554 0.025374
vt 0.894330 0.030759
vt 0.893976 0.030452
vt 0.894049 0.027684
vt 0.893888 0.029344
vt 0.893725 0.027686
vt 0.893320 0.023771
vt 0.893509 0.023009
vt 0.891599 0.023009
vt 0.891788 0.023771
vt 0.891059 0.027684
vt 0.891382 0.027686
vt 0.891220 0.029344
vt 0.891132 0.030452
vt 0.890777 0.030759
vt 0.890777 0.030759
vt 0.891132 0.030452
vt 0.891666 0.030962
vt 0.891843 0.030594
vt 0.892554 0.031028
vt 0.892554 0.030616
vt 0.893265 0.030594
vt 0.893442 0.030962
vt 0.893976 0.030452
vt 0.894330 0.030759
vt 0.888544 0.027991
vt 0.889028 0.027991
vt 0.888740 0.028912
vt 0.889200 0.028801
vt 0.889310 0.029741
vt 0.889701 0.029530
vt 0.890197 0.030400
vt 0.890481 0.030109
vt 0.891315 0.030823
vt 0.891464 0.030481
vt 0.889200 0.027183
vt 0.888740 0.027072
vt 0.889701 0.026453
vt 0.889310 0.026242
vt 0.890481 0.025874
vt 0.890197 0.025583
vt 0.891464 0.025502
vt 0.891315 0.025160
vt 0.892554 0.025374
vt 0.892554 0.025014
vt 0.893643 0.025502
vt 0.893793 0.025160
vt 0.894626 0.025874
vt 0.894911 0.025583
vt 0.895406 0.026453
vt 0.895798 0.026242
vt 0.895907 0.027183
vt 0.896367 0.027072
vt 0.896080 0.027991
vt 0.896563 0.027991
vt 0.895907 0.028801
vt 0.896367 0.028912
vt 0.895406 0.029530
vt 0.895798 0.029741
vt 0.894626 0.030109
vt 0.894911 0.030400
vt 0.893643 0.030481
vt 0.893793 0.030823
vn 0.933463 0.009915 0.358538
vn 0.933463 0.009915 0.358538
vn 0.933463 0.009915 0.358538
vn 0.933613 0.162854 0.319131
vn 0.933613 0.162854 0.319131
vn 0.933619 0.162796 0.319145
vn 0.933613 0.162854 0.319131
vn 0.933613 0.162854 0.319131
vn 0.933613 0.162854 0.319131
vn 0.933613 0.162854 0.319131
vn 0.933613 0.162854 0.319131
vn 0.933613 0.162854 0.319131
vn -0.001258 0.444563 0.895747
vn 0.027903 0.447683 0.893757
vn 0.000106 0.444733 0.895663
vn 0.000106 0.444733 0.895663
vn 0.027903 0.447683 0.893757
vn 0.027926 0.447917 0.893639
vn 0.028010 0.447925 0.893632
vn 0.027931 0.448198 0.893498
vn 0.000067 0.451388 0.892328
vn 0.000067 0.451388 0.892328
vn 0.027931 0.448198 0.893498
vn -0.001293 0.451507 0.892267
vn 0.000067 0.451388 0.892328
vn -0.001293 0.451507 0.892267
vn -0.048832 0.451554 0.890907
vn -0.048832 0.451554 0.890907
vn -0.001293 0.451507 0.892267
vn -0.045044 0.451387 0.891191
vn -0.048832 0.451554 0.890907
vn -0.045044 0.451387 0.891191
vn -0.058275 0.454885 0.888641
vn -0.048832 0.451554 0.890907
vn -0.058275 0.454885 0.888641
vn -0.057803 0.452491 0.889893
vn -0.048832 0.451554 0.890907
vn -0.057803 0.452491 0.889893
vn -0.058552 0.447124 0.892554
vn -0.048832 0.451554 0.890907
vn -0.058552 0.447124 0.892554
vn -0.059113 0.447116 0.892520
vn -0.059113 0.447116 0.892520
vn -0.058552 0.447124 0.892554
vn -0.048808 0.443182 0.895102
vn -0.048808 0.443182 0.895102
vn -0.058552 0.447124 0.892554
vn -0.057768 0.441782 0.895261
vn -0.048808 0.443182 0.895102
vn -0.057768 0.441782 0.895261
vn -0.058257 0.439380 0.896410
vn -0.048808 0.443182 0.895102
vn -0.058257 0.439380 0.896410
vn -0.045077 0.443567 0.895107
vn -0.048808 0.443182 0.895102
vn -0.045077 0.443567 0.895107
vn -0.001258 0.444563 0.895747
vn -0.048808 0.443182 0.895102
vn -0.001258 0.444563 0.895747
vn 0.000106 0.444733 0.895663
vn 0.999947 0.006950 0.007639
vn 0.999944 0.005794 0.008853
vn 0.999946 0.006964 0.007698
vn 0.999946 0.006964 0.007698
vn 0.999944 0.005794 0.008853
vn 0.999943 0.006884 0.008156
vn 0.999946 0.006964 0.007698
vn 0.999943 0.006884 0.008156
vn 0.999939 0.008738 0.006714
vn 0.002638 -0.893044 0.449961
vn 0.003072 -0.893223 0.449604
vn 0.003075 -0.893378 0.449295
vn 0.003075 -0.893378 0.449295
vn 0.003072 -0.893223 0.449604
vn 0.002964 -0.893871 0.448315
vn 0.003075 -0.893378 0.449295
vn 0.002964 -0.893871 0.448315
vn 0.002696 -0.894128 0.447804
vn -0.002881 0.893890 -0.448278
vn -0.002632 0.894141 -0.447777
vn -0.002409 0.894637 -0.446788
vn -0.002409 0.894637 -0.446788
vn -0.002632 0.894141 -0.447777
vn -0.002425 0.894802 -0.446456
vn -0.002409 0.894637 -0.446788
vn -0.002425 0.894802 -0.446456
vn -0.002923 0.894956 -0.446144
vn -0.018693 0.447892 0.893892
vn -0.018630 0.447938 0.893870
vn -0.018630 0.447938 0.893870
vn -0.018630 0.447938 0.893870
vn -0.018630 0.447938 0.893870
vn -0.018654 0.447902 0.893888
vn -0.018630 0.447938 0.893870
vn -0.018654 0.447902 0.893888
vn -0.018654 0.447902 0.893888
vn -0.018654 0.447902 0.893888
vn -0.018654 0.447902 0.893888
vn -0.018625 0.447935 0.893872
vn -0.018630 0.447938 0.893870
vn -0.018693 0.447892 0.893892
vn -0.018693 0.447892 0.893892
vn -0.018693 0.447892 0.893892
vn -0.018693 0.447892 0.893892
vn -0.018610 0.447901 0.893889
vn -0.018693 0.447892 0.893892
vn -0.018610 0.447901 0.893889
vn -0.018610 0.447901 0.893889
vn -0.018610 0.447901 0.893889
vn -0.018610 0.447901 0.893889
vn -0.018693 0.447930 0.893873
vn -0.018610 0.447901 0.893889
vn -0.018693 0.447930 0.893873
vn -0.018630 0.447938 0.893870
vn -0.018630 0.447938 0.893870
vn -0.018693 0.447930 0.893873
vn -0.018693 0.447930 0.893873
vn -0.018693 0.447930 0.893873
vn -0.018693 0.447930 0.893873
vn -0.018693 0.447930 0.893873
vn -0.018693 0.447930 0.893873
vn -0.018693 0.447930 0.893873
vn -0.018693 0.447892 0.893892
vn -0.018693 0.447930 0.893873
vn -0.018693 0.447892 0.893892
vn -0.018693 0.447892 0.893892
vn -0.018693 0.447892 0.893892
vn -0.018693 0.447892 0.893892
vn -0.018630 0.447938 0.893870
vn -0.018693 0.447892 0.893892
vn -0.018630 0.447938 0.893870
vn -0.018630 0.447938 0.893870
vn -0.018630 0.447938 0.893870
vn -0.018630 0.447938 0.893870
vn -0.018634 0.447903 0.893888
vn -0.018630 0.447938 0.893870
vn -0.018634 0.447903 0.893888
vn -0.018634 0.447903 0.893888
vn -0.018634 0.447903 0.893888
vn -0.018634 0.447903 0.893888
vn -0.018614 0.447904 0.893888
vn 0.061594 0.936003 -0.346560
vn 0.056977 0.934149 -0.352306
vn 0.069721 0.934055 -0.350257
vn 0.069721 0.934055 -0.350257
vn 0.056977 0.934149 -0.352306
vn 0.055215 0.932458 -0.357034
vn 0.069721 0.934055 -0.350257
vn 0.055215 0.932458 -0.357034
vn 0.071359 0.934570 -0.348549
vn 0.069721 0.934055 -0.350257
vn 0.071359 0.934570 -0.348549
vn 0.079777 0.931891 -0.353857
vn 0.069721 0.934055 -0.350257
vn 0.079777 0.931891 -0.353857
vn 0.081051 0.931009 -0.355883
vn 0.086519 -0.841922 0.532617
vn 0.085261 -0.840819 0.534559
vn 0.075201 -0.839283 0.538469
vn 0.075201 -0.839283 0.538469
vn 0.085261 -0.840819 0.534559
vn 0.076843 -0.838200 0.539922
vn 0.075201 -0.839283 0.538469
vn 0.076843 -0.838200 0.539922
vn 0.060715 -0.843833 0.533160
vn 0.075201 -0.839283 0.538469
vn 0.060715 -0.843833 0.533160
vn 0.062459 -0.841041 0.537353
vn 0.075201 -0.839283 0.538469
vn 0.062459 -0.841041 0.537353
vn 0.067074 -0.837506 0.542296
vn -0.944665 -0.196226 0.262875
vn -0.951811 -0.168559 0.256210
vn -0.968877 -0.109036 0.222236
vn -0.968877 -0.109036 0.222236
vn -0.951811 -0.168559 0.256210
vn -0.974941 -0.067739 0.211901
vn -0.968877 -0.109036 0.222236
vn -0.974941 -0.067739 0.211901
vn -0.988270 0.065987 0.137723
vn -0.988270 0.065987 0.137723
vn -0.974941 -0.067739 0.211901
vn -0.986466 0.071044 0.147777
vn -0.988270 0.065987 0.137723
vn -0.986466 0.071044 0.147777
vn -0.975778 0.205523 0.074946
vn -0.988270 0.065987 0.137723
vn -0.975778 0.205523 0.074946
vn -0.969962 0.238459 0.048065
vn -0.969962 0.238459 0.048065
vn -0.975778 0.205523 0.074946
vn -0.953255 0.301462 0.020646
vn -0.969962 0.238459 0.048065
vn -0.953255 0.301462 0.020646
vn -0.946259 0.323399 0.002489
vn -0.000548 -0.801164 0.598444
vn -0.000548 -0.801164 0.598444
vn -0.304839 -0.761383 0.572162
vn -0.304839 -0.761383 0.572162
vn -0.000548 -0.801164 0.598444
vn -0.304839 -0.761383 0.572162
vn -0.304839 -0.761383 0.572162
vn -0.304839 -0.761383 0.572162
vn -0.579597 -0.639339 0.505285
vn -0.579597 -0.639339 0.505285
vn -0.304839 -0.761383 0.572162
vn -0.579597 -0.639339 0.505285
vn -0.579597 -0.639339 0.505285
vn -0.579597 -0.639339 0.505285
vn -0.797929 -0.447007 0.404343
vn -0.797929 -0.447007 0.404343
vn -0.579597 -0.639339 0.505285
vn -0.797929 -0.447007 0.404343
vn -0.797929 -0.447007 0.404343
vn -0.797929 -0.447007 0.404343
vn -0.879275 -0.331241 0.342279
vn -0.879275 -0.331241 0.342279
vn -0.797929 -0.447007 0.404343
vn -0.879275 -0.331241 0.342279
vn -0.000548 -0.801164 0.598444
vn -0.000548 -0.801164 0.598444
vn 0.303454 -0.754798 0.581546
vn 0.303454 -0.754798 0.581546
vn -0.000548 -0.801164 0.598444
vn 0.303454 -0.754798 0.581546
vn 0.303454 -0.754798 0.581546
vn 0.303454 -0.754798 0.581546
vn 0.577392 -0.626842 0.523151
vn 0.577392 -0.626842 0.523151
vn 0.303454 -0.754798 0.581546
vn 0.577392 -0.626842 0.523151
vn 0.577392 -0.626842 0.523151
vn 0.577392 -0.626842 0.523151
vn 0.794552 -0.429782 0.428922
vn 0.794552 -0.429782 0.428922
vn 0.577392 -0.626842 0.523151
vn 0.794552 -0.429782 0.428922
vn 0.794552 -0.429782 0.428922
vn 0.794552 -0.429782 0.428922
vn 0.933589 -0.182945 0.308128
vn 0.933589 -0.182945 0.308128
vn 0.794552 -0.429782 0.428922
vn 0.933589 -0.182945 0.308128
vn 0.933589 -0.182945 0.308128
vn 0.933589 -0.182945 0.308128
vn 0.980917 0.089551 0.172577
vn 0.980917 0.089551 0.172577
vn 0.933589 -0.182945 0.308128
vn 0.980917 0.089551 0.172577
vn 0.980917 0.089551 0.172577
vn 0.980917 0.089551 0.172577
vn 0.931900 0.360967 0.035579
vn 0.931900 0.360967 0.035579
vn 0.980917 0.089551 0.172577
vn 0.931900 0.360967 0.035579
vn 0.931900 0.360967 0.035579
vn 0.931900 0.360967 0.035579
vn 0.791335 0.604792 -0.089529
vn 0.791335 0.604792 -0.089529
vn 0.931900 0.360967 0.035579
vn 0.791335 0.604792 -0.089529
vn 0.791335 0.604792 -0.089529
vn 0.791335 0.604792 -0.089529
vn 0.572978 0.797127 -0.190485
vn 0.572978 0.797127 -0.190485
vn 0.791335 0.604792 -0.089529
vn 0.572978 0.797127 -0.190485
vn 0.572978 0.797127 -0.190485
vn 0.572978 0.797127 -0.190485
vn 0.298232 0.919140 -0.257369
vn 0.298232 0.919140 -0.257369
vn 0.572978 0.797127 -0.190485
vn 0.298232 0.919140 -0.257369
vn 0.298232 0.919140 -0.257369
vn 0.298232 0.919140 -0.257369
vn -0.006020 0.958912 -0.283641
vn -0.006020 0.958912 -0.283641
vn 0.298232 0.919140 -0.257369
vn -0.006012 0.958906 -0.283659
vn -0.006020 0.958912 -0.283641
vn -0.006012 0.958906 -0.283659
vn -0.309993 0.912556 -0.266731
vn -0.309993 0.912556 -0.266731
vn -0.006012 0.958906 -0.283659
vn -0.309993 0.912556 -0.266731
vn -0.309993 0.912556 -0.266731
vn -0.309993 0.912556 -0.266731
vn -0.583962 0.784596 -0.208321
vn -0.583962 0.784596 -0.208321
vn -0.309993 0.912556 -0.266731
vn -0.583962 0.784596 -0.208321
vn -0.583962 0.784596 -0.208321
vn -0.583962 0.784596 -0.208321
vn -0.801103 0.587541 -0.114145
vn -0.801103 0.587541 -0.114145
vn -0.583962 0.784596 -0.208321
vn -0.801103 0.587541 -0.114145
vn -0.801103 0.587541 -0.114145
vn -0.801103 0.587541 -0.114145
vn -0.881746 0.468106 -0.058321
vn -0.881746 0.468106 -0.058321
vn -0.801103 0.587541 -0.114145
vn -0.881746 0.468106 -0.058321
s off
g aud_rs5_11_cockpit_speed_max_plastic_123vertices115faces
usemtl initialShadingGroup
f 17/17/25 18/18/26 19/19/27
f 19/19/28 18/18/29 20/20/30
f 21/21/31 22/22/32 23/23/33
f 23/23/34 22/22/35 24/24/36
f 25/25/37 26/26/38 27/27/39
f 27/27/40 26/26/41 28/28/42
f 29/29/43 30/30/44 31/31/45
f 31/31/46 30/30/47 32/32/48
f 31/31/49 32/32/50 33/33/51
f 33/33/52 32/32/53 34/34/54
f 33/33/55 34/34/56 35/35/57
f 33/33/58 35/35/59 36/36/60
f 33/33/61 36/36/62 37/37/63
f 33/33/64 37/37/65 38/38/66
f 38/38/67 37/37/68 39/39/69
f 39/39/70 37/37/71 40/40/72
f 39/39/73 40/40/74 41/41/75
f 39/39/76 41/41/77 42/42/78
f 39/39/79 42/42/80 25/25/81
f 39/39/82 25/25/83 27/27/84
f 43/43/85 44/44/86 45/45/87
f 45/45/88 44/44/89 46/46/90
f 45/45/91 46/46/92 47/47/93
f 48/48/94 49/49/95 50/50/96
f 50/50/97 49/49/98 51/51/99
f 50/50/100 51/51/101 52/52/102
f 53/53/103 54/54/104 55/55/105
f 55/55/106 54/54/107 56/56/108
f 55/55/109 56/56/110 57/57/111
f 58/58/112 59/59/113 60/60/114
f 60/60/115 59/59/116 61/61/117
f 60/60/118 61/61/119 62/62/120
f 62/62/121 61/61/122 63/63/123
f 59/59/124 58/58/125 64/64/126
f 64/64/127 58/58/128 65/65/129
f 64/64/130 65/65/131 66/66/132
f 66/66/133 65/65/134 67/67/135
f 66/66/136 67/67/137 68/68/138
f 68/68/139 67/67/140 69/69/141
f 69/69/142 67/67/143 70/70/144
f 69/69/145 70/70/146 71/71/147
f 69/69/148 71/71/149 72/72/150
f 72/72/151 71/71/152 73/73/153
f 72/72/154 73/73/155 74/74/156
f 74/74/157 73/73/158 75/75/159
f 74/74/160 75/75/161 76/76/162
f 76/76/163 75/75/164 77/77/165
f 78/78/166 79/79/167 80/80/168
f 80/80/169 79/79/170 81/81/171
f 80/80/172 81/81/173 82/82/174
f 80/80/175 82/82/176 83/83/177
f 80/80/178 83/83/179 84/84/180
f 85/85/181 86/86/182 87/87/183
f 87/87/184 86/86/185 88/88/186
f 87/87/187 88/88/188 89/89/189
f 87/87/190 89/89/191 90/90/192
f 87/87/193 90/90/194 91/91/195
f 92/92/196 93/93/197 94/94/198
f 94/94/199 93/93/200 95/95/201
f 94/94/202 95/95/203 96/96/204
f 96/96/205 95/95/206 97/97/207
f 96/96/208 97/97/209 98/98/210
f 96/96/211 98/98/212 99/99/213
f 99/99/214 98/98/215 100/100/216
f 99/99/217 100/100/218 101/101/219
f 102/102/220 103/103/221 104/104/222
f 104/104/223 103/103/224 105/105/225
f 104/104/226 105/105/227 106/106/228
f 106/106/229 105/105/230 107/107/231
f 106/106/232 107/107/233 108/108/234
f 108/108/235 107/107/236 109/109/237
f 108/108/238 109/109/239 110/110/240
f 110/110/241 109/109/242 111/111/243
f 103/103/244 102/102/245 112/112/246
f 112/112/247 102/102/248 113/113/249
f 112/112/250 113/113/251 114/114/252
f 114/114/253 113/113/254 115/115/255
f 114/114/256 115/115/257 116/116/258
f 116/116/259 115/115/260 117/117/261
f 116/116/262 117/117/263 118/118/264
f 118/118/265 117/117/266 119/119/267
f 118/118/268 119/119/269 120/120/270
f 120/120/271 119/119/272 121/121/273
f 120/120/274 121/121/275 122/122/276
f 122/122/277 121/121/278 123/123/279
f 122/122/280 123/123/281 124/124/282
f 124/124/283 123/123/284 125/125/285
f 124/124/286 125/125/287 126/126/288
f 126/126/289 125/125/290 127/127/291
f 126/126/292 127/127/293 128/128/294
f 128/128/295 127/127/296 129/129/297
f 128/128/298 129/129/299 130/130/300
f 130/130/301 129/129/302 131/131/303
f 130/130/304 131/131/305 132/132/306
f 132/132/307 131/131/308 133/133/309
f 132/132/310 133/133/311 134/134/312
f 134/134/313 133/133/314 135/135/315
f 134/134/316 135/135/317 136/136/318
f 136/136/319 135/135/320 137/137/321
f 136/136/322 137/137/323 138/138/324
f 138/138/325 137/137/326 139/139/327
